<svg width="46" height="19" viewBox="0 0 46 19" fill="none" xmlns="http://www.w3.org/2000/svg">
    <path d="M9.92754 18.4691C15.0086 18.4691 19.1275 14.3501 19.1275 9.26909C19.1275 4.18807 15.0086 0.0690918 9.92754 0.0690918C4.84652 0.0690918 0.727539 4.18807 0.727539 9.26909C0.727539 14.3501 4.84652 18.4691 9.92754 18.4691Z" fill="#AACEFA"/>
    <g opacity="0.3">
    <path d="M36.1307 18.4184C41.21 18.4184 45.3275 14.2953 45.3275 9.20918C45.3275 4.12309 41.21 0 36.1307 0C31.0514 0 26.9338 4.12309 26.9338 9.20918C26.9338 14.2953 31.0514 18.4184 36.1307 18.4184Z" fill="#00A6BA"/>
    </g>
    <g opacity="0.7">
    <path d="M23.2358 18.4184C28.3151 18.4184 32.4327 14.2953 32.4327 9.20918C32.4327 4.12309 28.3151 0 23.2358 0C18.1565 0 14.0389 4.12309 14.0389 9.20918C14.0389 14.2953 18.1565 18.4184 23.2358 18.4184Z" fill="#2569ED"/>
    </g>
    </svg>
    