<svg width="32" height="32" viewBox="0 0 32 32" fill="none" xmlns="http://www.w3.org/2000/svg">
    <rect width="32" height="32" rx="16" fill="#DBEAFE"/>
    <path d="M23.27 9.5715C23.574 9.7835 23.73 10.734 23.5725 12.8185C23.5124 13.5758 23.4113 14.3292 23.2695 15.0755C23.975 16.305 24.1695 17.699 23.853 19.2585C23.5725 20.639 22.654 21.929 21.1805 23.161C19.7065 24.3935 17.9975 25.5 15.9845 25.5C13.971 25.5 11.9075 24.3385 10.6545 23.161C9.40105 21.984 8.61255 20.8735 8.24805 19.6375C7.80655 18.139 7.95455 16.6185 8.69105 15.0755C8.53455 14.2485 8.43605 13.4965 8.39605 12.8185C8.24805 10.3215 8.34305 9.836 8.69105 9.5715C9.16455 9.2115 10.6715 10.1365 13.212 12.345C14.3755 12.1345 15.305 12.0295 16 12.0295C16.695 12.0295 17.614 12.1345 18.7565 12.3445C21.3135 10.1815 22.8185 9.257 23.27 9.5715Z" stroke="black" stroke-width="1.5"/>
    <path d="M15.9659 21.911C15.3489 21.923 14.5179 21.0865 14.5179 20.7445C14.5179 20.402 15.4919 20.3005 16.0364 20.3005C16.5814 20.3005 17.4849 20.3585 17.4849 20.7445C17.4849 21.13 16.5829 21.899 15.9659 21.911ZM11.9924 18.669C12.8849 19.0165 13.7874 18.8265 14.0074 18.244C14.2274 17.6615 13.6824 16.907 12.7899 16.559C11.8979 16.2115 11.1374 16.1715 10.9169 16.754C10.6969 17.3365 11.1004 18.321 11.9924 18.669ZM19.9799 18.5685C19.1364 18.976 18.2174 18.8265 17.9974 18.2435C17.7774 17.6615 18.3224 16.907 19.2144 16.559C20.1069 16.2115 20.7779 16.1715 20.9979 16.754C21.2179 17.3365 20.8234 18.1605 19.9799 18.5685Z" fill="black"/>
    </svg>
    