
<svg width="228" height="228" viewBox="0 0 228 228" fill="none" xmlns="http://www.w3.org/2000/svg">
    <path d="M110.204 0H116.83L115.358 77.031H111.675L110.204 0Z" fill="black"/>
    <path d="M133.919 1.78979L140.4 3.1626L122.887 78.2054L119.286 77.4431L133.919 1.78979Z" fill="black"/>
    <path d="M156.742 8.4537L162.796 11.1392L130.007 80.9139L126.644 79.4223L156.742 8.4537Z" fill="black"/>
    <path d="M177.677 19.7004L183.038 23.5814L136.407 85.0385L133.43 82.8821L177.677 19.7004Z" fill="black"/>
    <path d="M195.808 35.0384L200.241 39.9453L141.807 90.3993L139.344 87.6729L195.808 35.0384Z" fill="black"/>
    <path d="M210.342 53.7975L213.655 59.5157L145.97 96.7613L144.129 93.5844L210.342 53.7975Z" fill="black"/>
    <path d="M220.644 75.1576L222.691 81.4372L148.715 103.846L147.576 100.357L220.644 75.1576Z" fill="black"/>
    <path d="M226.263 98.1856L226.956 104.752L149.921 111.345L149.536 107.697L226.263 98.1856Z" fill="black"/>
    <path d="M226.956 121.874L226.263 128.441L149.536 118.929L149.921 115.281L226.956 121.874Z" fill="black"/>
    <path d="M222.691 145.189L220.644 151.469L147.576 126.269L148.715 122.781L222.691 145.189Z" fill="black"/>
    <path d="M213.655 167.11L210.342 172.829L144.129 133.042L145.97 129.865L213.655 167.11Z" fill="black"/>
    <path d="M200.241 186.681L195.808 191.589L139.344 138.954L141.807 136.227L200.241 186.681Z" fill="black"/>
    <path d="M183.038 203.045L177.677 206.926L133.43 143.744L136.407 141.588L183.038 203.045Z" fill="black"/>
    <path d="M162.796 215.487L156.742 218.173L126.646 147.204L130.008 145.713L162.796 215.487Z" fill="black"/>
    <path d="M140.4 223.463L133.919 224.837L119.286 149.183L122.887 148.421L140.4 223.463Z" fill="black"/>
    <path d="M116.829 226.627H110.203L111.676 149.595H115.358L116.829 226.627Z" fill="black"/>
    <path d="M93.1137 224.837L86.6333 223.463L104.146 148.421L107.747 149.183L93.1137 224.837Z" fill="black"/>
    <path d="M70.2914 218.173L64.2373 215.487L97.0262 145.713L100.388 147.204L70.2914 218.173Z" fill="black"/>
    <path d="M49.3561 206.926L43.9956 203.045L90.6266 141.588L93.6035 143.744L49.3561 206.926Z" fill="black"/>
    <path d="M31.2259 191.589L26.7919 186.681L85.227 136.227L87.6897 138.954L31.2259 191.589Z" fill="black"/>
    <path d="M16.6917 172.829L13.3785 167.11L81.0631 129.865L82.9042 133.042L16.6917 172.829Z" fill="black"/>
    <path d="M6.38948 151.469L4.3418 145.189L78.3185 122.781L79.4569 126.269L6.38948 151.469Z" fill="black"/>
    <path d="M0.769386 128.441L0.0767822 121.874L77.1129 115.281L77.4977 118.929L0.769386 128.441Z" fill="black"/>
    <path d="M0.0767822 104.752L0.769386 98.1856L77.4977 107.697L77.1129 111.345L0.0767822 104.752Z" fill="black"/>
    <path d="M4.3418 81.4372L6.38948 75.1576L79.4569 100.357L78.3185 103.846L4.3418 81.4372Z" fill="black"/>
    <path d="M13.3785 59.5157L16.6915 53.7975L82.9042 93.5844L81.0631 96.7613L13.3785 59.5157Z" fill="black"/>
    <path d="M26.7919 39.9453L31.2259 35.0384L87.6897 87.6729L85.227 90.3993L26.7919 39.9453Z" fill="black"/>
    <path d="M43.9956 23.5814L49.3564 19.7004L93.6037 82.8835L90.6268 85.0385L43.9956 23.5814Z" fill="black"/>
    <path d="M82.6294 87.3638L87.032 82.1198L89.6158 85.4863L85.5511 89.9845L82.6294 87.3638Z" fill="black"/>
    <path d="M63.7493 98.9726L66.0782 90.6506L80.1351 98.1842L78.338 103.696L63.7493 98.9726Z" fill="black"/>
    <path d="M55.824 108.911L57.1403 100.265L77.6985 105.545L77.1085 111.14L55.824 108.911Z" fill="black"/>
    <path d="M44.752 122.4L44.0776 111.253L76.872 113.381L77.4618 118.975L44.752 122.4Z" fill="black"/>
    <path d="M36.3161 139.901L33.0776 127.735L77.7659 120.867L79.3474 125.97L36.3161 139.901Z" fill="black"/>
    <path d="M28.1665 163.453L21.3898 150.398L80.5159 128.422L82.397 132.254L28.1665 163.453Z" fill="black"/>
    <path d="M30.2735 190.673L20.702 179.928L85.5058 135.488L88.0866 138.896L30.2735 190.673Z" fill="black"/>
    <path d="M89.7041 83.8024L95.3157 79.8989L96.0156 81.2641L90.6048 85.0371L89.7041 83.8024Z" fill="black"/>
    <path d="M73.7175 92.4224L77.7658 85.8434L84.2929 91.189L81.1124 96.6761L73.7175 92.4224Z" fill="black"/>
    <path d="M144.284 139.021L139.88 144.265L137.298 140.899L141.363 136.399L144.284 139.021Z" fill="black"/>
    <path d="M163.163 127.412L160.835 135.733L146.777 128.199L148.574 122.689L163.163 127.412Z" fill="black"/>
    <path d="M171.089 117.474L169.773 126.118L149.215 120.839L149.805 115.244L171.089 117.474Z" fill="black"/>
    <path d="M182.161 103.983L182.836 115.13L150.042 113.004L149.452 107.409L182.161 103.983Z" fill="black"/>
    <path d="M190.597 86.4834L193.836 98.6485L149.148 105.516L147.567 100.415L190.597 86.4834Z" fill="black"/>
    <path d="M198.747 62.931L205.524 75.9858L146.398 97.9617L144.517 94.1297L198.747 62.931Z" fill="black"/>
    <path d="M196.64 35.7108L206.211 46.4565L141.408 90.8965L138.827 87.4874L196.64 35.7108Z" fill="black"/>
    <path d="M137.21 142.581L131.597 146.486L130.898 145.121L136.309 141.346L137.21 142.581Z" fill="black"/>
    <path d="M153.194 133.962L149.148 140.54L142.62 135.196L145.801 129.707L153.194 133.962Z" fill="black"/>
    <path d="M64.2368 11.1393L70.2895 8.4537L100.388 79.4223L97.0257 80.9139L64.2368 11.1393Z" fill="black"/>
    <path d="M86.6333 3.1626L93.1137 1.78979L107.747 77.4431L104.146 78.2054L86.6333 3.1626Z" fill="black"/>
    </svg>
    