<svg width="512" height="512" viewBox="0 0 512 512" fill="none" xmlns="http://www.w3.org/2000/svg">
<rect width="512" height="512" fill="white"/>
<path d="M250.007 76H260.469L258.144 197.628H252.33L250.007 76Z" fill="black"/>
<path d="M287.451 78.826L297.684 80.9936L270.033 199.482L264.346 198.279L287.451 78.826Z" fill="black"/>
<path d="M323.487 89.348L333.047 93.5882L281.275 203.759L275.964 201.404L323.487 89.348Z" fill="black"/>
<path d="M356.542 107.106L365.008 113.234L291.379 210.271L286.678 206.867L356.542 107.106Z" fill="black"/>
<path d="M385.171 131.324L392.17 139.072L299.905 218.736L296.017 214.431L385.171 131.324Z" fill="black"/>
<path d="M408.119 160.944L413.349 169.972L306.479 228.781L303.572 223.765L408.119 160.944Z" fill="black"/>
<path d="M424.385 194.67L427.618 204.585L310.813 239.967L309.015 234.459L424.385 194.67Z" fill="black"/>
<path d="M433.258 231.03L434.352 241.398L312.717 251.808L312.109 246.048L433.258 231.03Z" fill="black"/>
<path d="M434.352 268.433L433.258 278.801L312.109 263.783L312.717 258.023L434.352 268.433Z" fill="black"/>
<path d="M427.618 305.246L424.385 315.161L309.015 275.373L310.813 269.864L427.618 305.246Z" fill="black"/>
<path d="M413.349 339.858L408.119 348.889L303.572 286.067L306.479 281.05L413.349 339.858Z" fill="black"/>
<path d="M392.17 370.76L385.171 378.508L296.017 295.4L299.905 291.096L392.17 370.76Z" fill="black"/>
<path d="M365.008 396.597L356.542 402.726L286.678 302.965L291.379 299.56L365.008 396.597Z" fill="black"/>
<path d="M333.047 416.243L323.487 420.483L275.967 308.428L281.275 306.073L333.047 416.243Z" fill="black"/>
<path d="M297.684 428.837L287.451 431.006L264.346 311.553L270.033 310.349L297.684 428.837Z" fill="black"/>
<path d="M260.467 433.831H250.004L252.33 312.203H258.144L260.467 433.831Z" fill="black"/>
<path d="M223.022 431.006L212.79 428.837L240.441 310.349L246.127 311.553L223.022 431.006Z" fill="black"/>
<path d="M186.986 420.483L177.427 416.243L229.199 306.073L234.507 308.428L186.986 420.483Z" fill="black"/>
<path d="M153.93 402.726L145.467 396.597L219.094 299.56L223.795 302.965L153.93 402.726Z" fill="black"/>
<path d="M125.304 378.508L118.303 370.76L210.569 291.096L214.457 295.4L125.304 378.508Z" fill="black"/>
<path d="M102.355 348.889L97.124 339.858L203.994 281.05L206.901 286.067L102.355 348.889Z" fill="black"/>
<path d="M86.0887 315.161L82.8555 305.246L199.661 269.864L201.458 275.373L86.0887 315.161Z" fill="black"/>
<path d="M77.2149 278.801L76.1213 268.433L197.757 258.023L198.365 263.783L77.2149 278.801Z" fill="black"/>
<path d="M76.1213 241.398L77.2149 231.03L198.365 246.048L197.757 251.808L76.1213 241.398Z" fill="black"/>
<path d="M82.8555 204.585L86.0887 194.67L201.458 234.459L199.661 239.967L82.8555 204.585Z" fill="black"/>
<path d="M97.124 169.972L102.355 160.944L206.901 223.765L203.994 228.781L97.124 169.972Z" fill="black"/>
<path d="M118.303 139.072L125.304 131.324L214.457 214.431L210.569 218.736L118.303 139.072Z" fill="black"/>
<path d="M145.467 113.234L153.931 107.106L223.795 206.869L219.095 210.271L145.467 113.234Z" fill="black"/>
<path d="M206.468 213.943L213.419 205.663L217.499 210.978L211.081 218.081L206.468 213.943Z" fill="black"/>
<path d="M176.657 232.273L180.334 219.133L202.529 231.028L199.692 239.731L176.657 232.273Z" fill="black"/>
<path d="M164.143 247.965L166.222 234.313L198.682 242.65L197.75 251.485L164.143 247.965Z" fill="black"/>
<path d="M146.661 269.264L145.596 251.663L197.377 255.022L198.308 263.855L146.661 269.264Z" fill="black"/>
<path d="M133.341 296.897L128.228 277.687L198.788 266.843L201.285 274.9L133.341 296.897Z" fill="black"/>
<path d="M120.473 334.083L109.773 313.47L203.13 278.771L206.1 284.822L120.473 334.083Z" fill="black"/>
<path d="M123.8 377.062L108.687 360.096L211.009 289.929L215.084 295.309L123.8 377.062Z" fill="black"/>
<path d="M217.638 208.32L226.498 202.156L227.603 204.312L219.06 210.269L217.638 208.32Z" fill="black"/>
<path d="M192.396 221.93L198.788 211.542L209.094 219.983L204.072 228.647L192.396 221.93Z" fill="black"/>
<path d="M303.817 295.507L296.863 303.787L292.786 298.471L299.204 291.367L303.817 295.507Z" fill="black"/>
<path d="M333.626 277.177L329.95 290.315L307.753 278.42L310.591 269.719L333.626 277.177Z" fill="black"/>
<path d="M346.141 261.485L344.063 275.134L311.603 266.798L312.534 257.965L346.141 261.485Z" fill="black"/>
<path d="M363.622 240.184L364.688 257.785L312.908 254.428L311.976 245.593L363.622 240.184Z" fill="black"/>
<path d="M376.942 212.553L382.057 231.761L311.496 242.604L309 234.55L376.942 212.553Z" fill="black"/>
<path d="M389.81 175.365L400.511 195.978L307.154 230.676L304.184 224.626L389.81 175.365Z" fill="black"/>
<path d="M386.484 132.386L401.597 149.352L299.276 219.521L295.2 214.138L386.484 132.386Z" fill="black"/>
<path d="M292.647 301.128L283.785 307.293L282.682 305.138L291.225 299.178L292.647 301.128Z" fill="black"/>
<path d="M317.886 287.52L311.496 297.905L301.19 289.467L306.212 280.801L317.886 287.52Z" fill="black"/>
<path d="M177.427 93.5884L186.984 89.348L234.507 201.404L229.199 203.759L177.427 93.5884Z" fill="black"/>
<path d="M212.79 80.9936L223.022 78.826L246.127 198.279L240.441 199.482L212.79 80.9936Z" fill="black"/>
</svg>
