
<svg width="448" height="136" viewBox="0 0 448 136" fill="none" xmlns="http://www.w3.org/2000/svg">
    <path d="M65.1182 27H67.5304L66.9943 55.042H65.6538L65.1182 27Z" fill="black"/>
    <path d="M73.7513 27.6516L76.1104 28.1513L69.7353 55.4695L68.4243 55.192L73.7513 27.6516Z" fill="black"/>
    <path d="M82.0596 30.0775L84.2636 31.0551L72.3273 56.4555L71.1029 55.9125L82.0596 30.0775Z" fill="black"/>
    <path d="M89.6806 34.1716L91.6323 35.5844L74.6568 57.957L73.5731 57.172L89.6806 34.1716Z" fill="black"/>
    <path d="M96.281 39.7552L97.8948 41.5415L76.6226 59.9085L75.7261 58.916L96.281 39.7552Z" fill="black"/>
    <path d="M101.572 46.5842L102.778 48.6658L78.1383 62.2245L77.468 61.068L101.572 46.5842Z" fill="black"/>
    <path d="M105.322 54.36L106.067 56.646L79.1374 64.8035L78.7229 63.5335L105.322 54.36Z" fill="black"/>
    <path d="M107.368 62.743L107.62 65.1335L79.5763 67.5335L79.4362 66.2055L107.368 62.743Z" fill="black"/>
    <path d="M107.62 71.3665L107.368 73.757L79.4362 70.2945L79.5763 68.9665L107.62 71.3665Z" fill="black"/>
    <path d="M106.067 79.854L105.322 82.14L78.7229 72.9665L79.1374 71.6965L106.067 79.854Z" fill="black"/>
    <path d="M102.778 87.834L101.572 89.916L77.468 75.432L78.1383 74.2755L102.778 87.834Z" fill="black"/>
    <path d="M97.8948 94.9585L96.281 96.745L75.7261 77.584L76.6226 76.5915L97.8948 94.9585Z" fill="black"/>
    <path d="M91.6323 100.915L89.6806 102.328L73.5731 79.328L74.6568 78.543L91.6323 100.915Z" fill="black"/>
    <path d="M84.2636 105.445L82.0596 106.422L71.1034 80.5875L72.3273 80.0445L84.2636 105.445Z" fill="black"/>
    <path d="M76.1104 108.349L73.7513 108.849L68.4243 81.308L69.7353 81.0305L76.1104 108.349Z" fill="black"/>
    <path d="M67.5299 109.5H65.1177L65.6538 81.458H66.9943L67.5299 109.5Z" fill="black"/>
    <path d="M58.8967 108.849L56.5376 108.349L62.9127 81.0305L64.2237 81.308L58.8967 108.849Z" fill="black"/>
    <path d="M50.5885 106.422L48.3846 105.445L60.3209 80.0445L61.5447 80.5875L50.5885 106.422Z" fill="black"/>
    <path d="M42.9673 102.328L41.0159 100.915L57.9912 78.543L59.0749 79.328L42.9673 102.328Z" fill="black"/>
    <path d="M36.3673 96.745L34.7532 94.9585L56.0256 76.5915L56.9221 77.584L36.3673 96.745Z" fill="black"/>
    <path d="M31.0763 89.916L29.8702 87.834L54.5098 74.2755L55.18 75.432L31.0763 89.916Z" fill="black"/>
    <path d="M27.326 82.14L26.5806 79.854L53.5107 71.6965L53.9251 72.9665L27.326 82.14Z" fill="black"/>
    <path d="M25.2801 73.757L25.028 71.3665L53.0718 68.9665L53.2119 70.2945L25.2801 73.757Z" fill="black"/>
    <path d="M25.028 65.1335L25.2801 62.743L53.2119 66.2055L53.0718 67.5335L25.028 65.1335Z" fill="black"/>
    <path d="M26.5806 56.646L27.326 54.36L53.9251 63.5335L53.5107 64.8035L26.5806 56.646Z" fill="black"/>
    <path d="M29.8702 48.6658L31.0763 46.5842L55.18 61.068L54.5098 62.2245L29.8702 48.6658Z" fill="black"/>
    <path d="M34.7532 41.5415L36.3673 39.7552L56.9221 58.916L56.0256 59.9085L34.7532 41.5415Z" fill="black"/>
    <path d="M41.0159 35.5844L42.9674 34.1716L59.075 57.1725L57.9913 57.957L41.0159 35.5844Z" fill="black"/>
    <path d="M55.08 58.8035L56.6827 56.8945L57.6233 58.12L56.1436 59.7575L55.08 58.8035Z" fill="black"/>
    <path d="M48.207 63.0295L49.0548 60L54.172 62.7425L53.5178 64.749L48.207 63.0295Z" fill="black"/>
    <path d="M45.3219 66.6475L45.8011 63.5L53.285 65.422L53.0702 67.459L45.3219 66.6475Z" fill="black"/>
    <path d="M41.2913 71.558L41.0458 67.5L52.9841 68.2745L53.1988 70.311L41.2913 71.558Z" fill="black"/>
    <path d="M38.2203 77.929L37.0414 73.5L53.3095 71L53.8852 72.8575L38.2203 77.929Z" fill="black"/>
    <path d="M35.2536 86.5025L32.7866 81.75L54.3106 73.75L54.9954 75.145L35.2536 86.5025Z" fill="black"/>
    <path d="M36.0206 96.4115L32.5363 92.5L56.1271 76.3225L57.0666 77.563L36.0206 96.4115Z" fill="black"/>
    <path d="M57.6554 57.507L59.6982 56.086L59.953 56.583L57.9833 57.9565L57.6554 57.507Z" fill="black"/>
    <path d="M51.8358 60.645L53.3095 58.25L55.6856 60.196L54.5278 62.1935L51.8358 60.645Z" fill="black"/>
    <path d="M77.5245 77.6085L75.9213 79.5175L74.9812 78.292L76.4609 76.654L77.5245 77.6085Z" fill="black"/>
    <path d="M84.3972 73.3825L83.5497 76.4115L78.432 73.669L79.0862 71.663L84.3972 73.3825Z" fill="black"/>
    <path d="M87.2825 69.7645L86.8034 72.9115L79.3196 70.9895L79.5343 68.953L87.2825 69.7645Z" fill="black"/>
    <path d="M91.3129 64.8535L91.5587 68.9115L79.6204 68.1375L79.4056 66.1005L91.3129 64.8535Z" fill="black"/>
    <path d="M94.3838 58.483L95.5632 62.9115L79.295 65.4115L78.7194 63.5545L94.3838 58.483Z" fill="black"/>
    <path d="M97.3507 49.9091L99.8179 54.6615L78.2939 62.6615L77.6091 61.2665L97.3507 49.9091Z" fill="black"/>
    <path d="M96.5838 40L100.068 43.9118L76.4774 60.0895L75.5378 58.8485L96.5838 40Z" fill="black"/>
    <path d="M74.9492 78.9045L72.9059 80.326L72.6516 79.829L74.6213 78.455L74.9492 78.9045Z" fill="black"/>
    <path d="M80.7681 75.767L79.295 78.1615L76.9188 76.216L78.0766 74.218L80.7681 75.767Z" fill="black"/>
    <path d="M48.3845 31.0551L50.5879 30.0775L61.5447 55.9125L60.3208 56.4555L48.3845 31.0551Z" fill="black"/>
    <path d="M56.5376 28.1513L58.8967 27.6516L64.2237 55.192L62.9127 55.4695L56.5376 28.1513Z" fill="black"/>
    <path d="M141.68 58.125V83.75H138.232V58.125H128.669V55.132H151.244V58.125H141.68ZM156.276 53.41H159.56V66.038H159.724C159.943 65.5185 160.217 65.0265 160.545 64.562C160.874 64.07 161.27 63.6465 161.735 63.291C162.228 62.9355 162.803 62.6485 163.459 62.43C164.116 62.2115 164.882 62.102 165.758 62.102C167.974 62.102 169.753 62.8125 171.094 64.234C172.435 65.628 173.105 67.6095 173.105 70.179V83.75H169.822V70.753C169.822 68.8125 169.398 67.3775 168.549 66.448C167.701 65.4915 166.456 65.013 164.814 65.013C164.157 65.013 163.514 65.095 162.885 65.259C162.256 65.423 161.694 65.669 161.202 65.997C160.709 66.325 160.312 66.7485 160.012 67.268C159.711 67.7875 159.56 68.3885 159.56 69.072V83.75H156.276V53.41ZM189.549 84.242C188.016 84.242 186.634 83.9825 185.403 83.463C184.199 82.9435 183.159 82.2055 182.283 81.249C181.435 80.265 180.778 79.1035 180.313 77.764C179.848 76.3975 179.615 74.8805 179.615 73.213C179.615 71.5185 179.848 69.9875 180.313 68.621C180.806 67.2545 181.476 66.0925 182.324 65.136C183.173 64.152 184.185 63.4005 185.362 62.881C186.566 62.3615 187.893 62.102 189.343 62.102C190.766 62.102 192.052 62.3615 193.202 62.881C194.378 63.4005 195.377 64.1245 196.198 65.054C197.019 65.956 197.648 67.0355 198.086 68.293C198.524 69.5505 198.743 70.9305 198.743 72.434V73.992H183.063V74.976C183.063 75.9055 183.214 76.7665 183.515 77.559C183.816 78.3515 184.24 79.035 184.787 79.609C185.362 80.183 186.046 80.634 186.839 80.962C187.66 81.2625 188.563 81.413 189.549 81.413C190.972 81.413 192.203 81.085 193.243 80.429C194.282 79.773 195.076 78.871 195.623 77.723L198.045 79.363C197.416 80.7845 196.362 81.9595 194.884 82.889C193.434 83.791 191.655 84.242 189.549 84.242ZM189.343 64.808C188.44 64.808 187.606 64.972 186.839 65.3C186.073 65.628 185.403 66.079 184.828 66.653C184.281 67.227 183.843 67.9105 183.515 68.703C183.214 69.4685 183.063 70.3155 183.063 71.245V71.532H195.213V71.081C195.213 70.1515 195.062 69.3045 194.761 68.539C194.488 67.7735 194.091 67.1175 193.571 66.571C193.078 65.997 192.463 65.5595 191.724 65.259C191.013 64.9585 190.219 64.808 189.343 64.808ZM213.791 84.242C212.039 84.242 210.534 83.914 209.276 83.258C208.017 82.5745 206.977 81.6045 206.156 80.347C205.335 79.0895 204.733 77.5455 204.35 75.714C203.967 73.8825 203.775 71.7915 203.775 69.441C203.775 67.1175 203.967 65.0405 204.35 63.209C204.733 61.3505 205.335 59.7925 206.156 58.535C206.977 57.2775 208.017 56.321 209.276 55.665C210.534 54.9815 212.039 54.64 213.791 54.64C215.542 54.64 217.047 54.9815 218.306 55.665C219.565 56.321 220.604 57.2775 221.425 58.535C222.246 59.7925 222.848 61.3505 223.231 63.209C223.614 65.0405 223.806 67.1175 223.806 69.441C223.806 71.7915 223.614 73.8825 223.231 75.714C222.848 77.5455 222.246 79.0895 221.425 80.347C220.604 81.6045 219.565 82.5745 218.306 83.258C217.047 83.914 215.542 84.242 213.791 84.242ZM213.791 81.249C214.94 81.249 215.911 81.0305 216.705 80.593C217.498 80.1285 218.155 79.486 218.675 78.666C219.195 77.846 219.565 76.862 219.783 75.714C220.03 74.5385 220.153 73.2265 220.153 71.778V67.104C220.153 65.6825 220.03 64.3845 219.783 63.209C219.565 62.0335 219.195 61.036 218.675 60.216C218.155 59.396 217.498 58.7675 216.705 58.33C215.911 57.8655 214.94 57.633 213.791 57.633C212.641 57.633 211.67 57.8655 210.876 58.33C210.083 58.7675 209.426 59.396 208.906 60.216C208.386 61.036 208.003 62.0335 207.757 63.209C207.538 64.3845 207.428 65.6825 207.428 67.104V71.778C207.428 73.2265 207.538 74.5385 207.757 75.714C208.003 76.862 208.386 77.846 208.906 78.666C209.426 79.486 210.083 80.1285 210.876 80.593C211.67 81.0305 212.641 81.249 213.791 81.249ZM229.988 62.594H233.271V66.038H233.436C234.804 63.414 236.979 62.102 239.962 62.102C242.561 62.102 244.586 63.0725 246.037 65.013C247.514 66.9535 248.253 69.6735 248.253 73.172C248.253 76.6705 247.514 79.3905 246.037 81.331C244.586 83.2715 242.561 84.242 239.962 84.242C236.979 84.242 234.804 82.93 233.436 80.306H233.271V91.95H229.988V62.594ZM238.689 81.331C240.605 81.331 242.083 80.757 243.122 79.609C244.19 78.4335 244.723 76.8895 244.723 74.976V71.368C244.723 69.4545 244.19 67.924 243.122 66.776C242.083 65.6005 240.605 65.013 238.689 65.013C237.951 65.013 237.253 65.1085 236.596 65.3C235.939 65.4915 235.365 65.7785 234.872 66.161C234.38 66.5165 233.983 66.9675 233.682 67.514C233.408 68.0335 233.271 68.6485 233.271 69.359V76.985C233.271 77.6955 233.408 78.3245 233.682 78.871C233.983 79.3905 234.38 79.8415 234.872 80.224C235.365 80.5795 235.939 80.8525 236.596 81.044C237.253 81.2355 237.951 81.331 238.689 81.331ZM263.383 84.242C261.851 84.242 260.469 83.9825 259.237 83.463C258.033 82.9435 256.993 82.2055 256.118 81.249C255.269 80.265 254.613 79.1035 254.148 77.764C253.683 76.3975 253.45 74.8805 253.45 73.213C253.45 71.5185 253.683 69.9875 254.148 68.621C254.64 67.2545 255.31 66.0925 256.159 65.136C257.007 64.152 258.019 63.4005 259.196 62.881C260.4 62.3615 261.728 62.102 263.178 62.102C264.601 62.102 265.887 62.3615 267.036 62.881C268.213 63.4005 269.211 64.1245 270.032 65.054C270.853 65.956 271.482 67.0355 271.92 68.293C272.358 69.5505 272.577 70.9305 272.577 72.434V73.992H256.898V74.976C256.898 75.9055 257.048 76.7665 257.349 77.559C257.65 78.3515 258.075 79.035 258.622 79.609C259.196 80.183 259.881 80.634 260.674 80.962C261.495 81.2625 262.398 81.413 263.383 81.413C264.806 81.413 266.037 81.085 267.077 80.429C268.117 79.773 268.911 78.871 269.458 77.723L271.879 79.363C271.25 80.7845 270.197 81.9595 268.719 82.889C267.269 83.791 265.49 84.242 263.383 84.242ZM263.178 64.808C262.275 64.808 261.44 64.972 260.674 65.3C259.908 65.628 259.237 66.079 258.663 66.653C258.116 67.227 257.678 67.9105 257.349 68.703C257.048 69.4685 256.898 70.3155 256.898 71.245V71.532H269.047V71.081C269.047 70.1515 268.897 69.3045 268.596 68.539C268.322 67.7735 267.925 67.1175 267.405 66.571C266.913 65.997 266.297 65.5595 265.558 65.259C264.847 64.9585 264.053 64.808 263.178 64.808ZM279.334 83.75V62.594H282.617V66.038H282.782C283 65.5185 283.274 65.0265 283.602 64.562C283.931 64.07 284.327 63.6465 284.793 63.291C285.285 62.9355 285.86 62.6485 286.517 62.43C287.173 62.2115 287.939 62.102 288.815 62.102C291.032 62.102 292.81 62.8125 294.151 64.234C295.492 65.628 296.163 67.6095 296.163 70.179V83.75H292.879V70.753C292.879 68.8125 292.454 67.3775 291.606 66.448C290.758 65.4915 289.513 65.013 287.871 65.013C287.215 65.013 286.571 65.095 285.942 65.259C285.312 65.423 284.752 65.669 284.259 65.997C283.767 66.325 283.37 66.7485 283.069 67.268C282.768 67.7875 282.617 68.3885 282.617 69.072V83.75H279.334ZM304.848 83.75V55.132H308.296V80.757H321.882V83.75H304.848ZM344.852 83.75C343.565 83.75 342.649 83.422 342.102 82.766C341.554 82.11 341.212 81.29 341.076 80.306H340.87C340.405 81.536 339.653 82.5065 338.613 83.217C337.6 83.9005 336.232 84.242 334.508 84.242C332.292 84.242 330.527 83.668 329.213 82.52C327.9 81.372 327.243 79.8005 327.243 77.805C327.243 75.837 327.954 74.32 329.378 73.254C330.828 72.188 333.154 71.655 336.355 71.655H340.87V69.564C340.87 68.006 340.432 66.8445 339.557 66.079C338.681 65.2865 337.436 64.89 335.822 64.89C334.399 64.89 333.236 65.177 332.333 65.751C331.43 66.2975 330.705 67.0495 330.157 68.006L327.941 66.366C328.214 65.8195 328.584 65.2865 329.049 64.767C329.514 64.2475 330.089 63.7965 330.773 63.414C331.457 63.004 332.237 62.6895 333.113 62.471C333.988 62.225 334.96 62.102 336.027 62.102C338.517 62.102 340.487 62.7305 341.938 63.988C343.415 65.2455 344.154 66.9945 344.154 69.236V80.88H347.109V83.75H344.852ZM335.083 81.495C335.931 81.495 336.697 81.3995 337.382 81.208C338.093 80.9895 338.708 80.716 339.229 80.388C339.748 80.0325 340.145 79.6225 340.419 79.158C340.72 78.666 340.87 78.1465 340.87 77.6V74.115H336.355C334.385 74.115 332.949 74.3885 332.046 74.935C331.143 75.4815 330.691 76.2745 330.691 77.313V78.174C330.691 79.2675 331.074 80.101 331.84 80.675C332.634 81.2215 333.714 81.495 335.083 81.495ZM368.314 62.594H371.598L361.09 88.383C360.844 88.9845 360.57 89.5035 360.269 89.941C359.968 90.4055 359.612 90.7745 359.202 91.048C358.791 91.3485 358.299 91.5675 357.724 91.704C357.15 91.868 356.465 91.95 355.672 91.95H352.552V89.162H357.478L359.859 83.34L351.321 62.594H354.687L358.258 71.45L361.418 79.486H361.582L364.743 71.45L368.314 62.594ZM386.44 84.242C384.908 84.242 383.526 83.9825 382.295 83.463C381.09 82.9435 380.051 82.2055 379.175 81.249C378.327 80.265 377.67 79.1035 377.205 77.764C376.739 76.3975 376.507 74.8805 376.507 73.213C376.507 71.5185 376.739 69.9875 377.205 68.621C377.697 67.2545 378.368 66.0925 379.216 65.136C380.064 64.152 381.077 63.4005 382.254 62.881C383.457 62.3615 384.784 62.102 386.235 62.102C387.658 62.102 388.944 62.3615 390.093 62.881C391.27 63.4005 392.269 64.1245 393.09 65.054C393.911 65.956 394.54 67.0355 394.978 68.293C395.415 69.5505 395.635 70.9305 395.635 72.434V73.992H379.955V74.976C379.955 75.9055 380.105 76.7665 380.407 77.559C380.707 78.3515 381.131 79.035 381.679 79.609C382.254 80.183 382.937 80.634 383.731 80.962C384.552 81.2625 385.455 81.413 386.44 81.413C387.863 81.413 389.094 81.085 390.134 80.429C391.174 79.773 391.967 78.871 392.515 77.723L394.937 79.363C394.307 80.7845 393.254 81.9595 391.776 82.889C390.326 83.791 388.547 84.242 386.44 84.242ZM386.235 64.808C385.332 64.808 384.497 64.972 383.731 65.3C382.965 65.628 382.295 66.079 381.72 66.653C381.172 67.227 380.735 67.9105 380.407 68.703C380.105 69.4685 379.955 70.3155 379.955 71.245V71.532H392.105V71.081C392.105 70.1515 391.954 69.3045 391.653 68.539C391.379 67.7735 390.982 67.1175 390.463 66.571C389.97 65.997 389.355 65.5595 388.616 65.259C387.904 64.9585 387.11 64.808 386.235 64.808ZM401.529 80.962H407.727V65.382H401.529V62.594H411.011V67.924H411.216C411.653 66.2565 412.474 64.9585 413.679 64.029C414.91 63.0725 416.47 62.594 418.358 62.594H421.313V65.874H417.332C415.444 65.874 413.911 66.4205 412.735 67.514C411.585 68.6075 411.011 70.0425 411.011 71.819V80.962H419.22V83.75H401.529V80.962Z" fill="black"/>
    </svg>
    